<mxfile host="app.diagrams.net" modified="2022-06-12T06:57:53.901Z" agent="5.0 (Windows)" etag="Idqt7Io3JWn5OZ4dQs6h" version="19.0.3" type="gitlab" pages="2">
  <diagram name="Stuktur 1.0 PT. Kanvas Cipta Karya" id="97916047-d0de-89f5-080d-49f4d83e522f">
    <mxGraphModel dx="1394" dy="536" grid="1" gridSize="10" guides="1" tooltips="1" connect="1" arrows="1" fold="1" page="1" pageScale="1.5" pageWidth="1169" pageHeight="827" background="none" math="0" shadow="0">
      <root>
        <mxCell id="0" />
        <mxCell id="1" parent="0" />
        <mxCell id="2" value="Ketua Utama&#xa;Dinnu Shobirin&#xa;" style="rounded=1;fillColor=#10739E;strokeColor=none;shadow=1;gradientColor=none;fontStyle=1;fontColor=#FFFFFF;fontSize=14;" parent="1" vertex="1">
          <mxGeometry x="672" y="205.5" width="200" height="60" as="geometry" />
        </mxCell>
        <mxCell id="3" value="Ketua Kordinasi&#xa;Bp. Sobirin" style="rounded=1;fillColor=#10739E;strokeColor=none;shadow=1;gradientColor=none;fontStyle=1;fontColor=#FFFFFF;fontSize=14;" parent="1" vertex="1">
          <mxGeometry x="662" y="345.5" width="220" height="60" as="geometry" />
        </mxCell>
        <mxCell id="4" value="SDM/Finance&#xa;- Erni" style="rounded=1;fillColor=#10739E;strokeColor=none;shadow=1;gradientColor=none;fontStyle=1;fontColor=#FFFFFF;fontSize=14;" parent="1" vertex="1">
          <mxGeometry x="302" y="455.5" width="200" height="60" as="geometry" />
        </mxCell>
        <mxCell id="5" value="Penjualan" style="rounded=1;fillColor=#10739E;strokeColor=none;shadow=1;gradientColor=none;fontStyle=1;fontColor=#FFFFFF;fontSize=14;" parent="1" vertex="1">
          <mxGeometry x="542" y="455.5" width="200" height="60" as="geometry" />
        </mxCell>
        <mxCell id="6" value="Produksi&#xa;- waket&#xa;" style="rounded=1;fillColor=#10739E;strokeColor=none;shadow=1;gradientColor=none;fontStyle=1;fontColor=#FFFFFF;fontSize=14;" parent="1" vertex="1">
          <mxGeometry x="872" y="455.5" width="200" height="60" as="geometry" />
        </mxCell>
        <mxCell id="7" value="Komisaris&#xa;- Mas Iskandar&#xa;- Mas Aves&#xa;" style="rounded=1;fillColor=#10739E;strokeColor=none;shadow=1;gradientColor=none;fontStyle=1;fontColor=#FFFFFF;fontSize=14;" parent="1" vertex="1">
          <mxGeometry x="1490" y="450" width="200" height="100" as="geometry" />
        </mxCell>
        <mxCell id="29" value="" style="edgeStyle=elbowEdgeStyle;elbow=vertical;strokeWidth=4;endArrow=block;endFill=1;fontStyle=1;strokeColor=#23445D;" parent="1" source="2" target="3" edge="1">
          <mxGeometry x="22" y="165.5" width="100" height="100" as="geometry">
            <mxPoint x="22" y="265.5" as="sourcePoint" />
            <mxPoint x="122" y="165.5" as="targetPoint" />
          </mxGeometry>
        </mxCell>
        <mxCell id="30" value="" style="edgeStyle=elbowEdgeStyle;elbow=vertical;strokeWidth=4;endArrow=block;endFill=1;fontStyle=1;strokeColor=#23445D;" parent="1" source="3" target="5" edge="1">
          <mxGeometry x="22" y="165.5" width="100" height="100" as="geometry">
            <mxPoint x="22" y="265.5" as="sourcePoint" />
            <mxPoint x="122" y="165.5" as="targetPoint" />
          </mxGeometry>
        </mxCell>
        <mxCell id="31" value="" style="edgeStyle=elbowEdgeStyle;elbow=vertical;strokeWidth=4;endArrow=block;endFill=1;fontStyle=1;strokeColor=#23445D;" parent="1" source="3" target="4" edge="1">
          <mxGeometry x="22" y="165.5" width="100" height="100" as="geometry">
            <mxPoint x="22" y="265.5" as="sourcePoint" />
            <mxPoint x="122" y="165.5" as="targetPoint" />
          </mxGeometry>
        </mxCell>
        <mxCell id="32" value="" style="edgeStyle=elbowEdgeStyle;elbow=vertical;strokeWidth=4;endArrow=block;endFill=1;fontStyle=1;strokeColor=#23445D;" parent="1" source="3" target="6" edge="1">
          <mxGeometry x="22" y="165.5" width="100" height="100" as="geometry">
            <mxPoint x="22" y="265.5" as="sourcePoint" />
            <mxPoint x="122" y="165.5" as="targetPoint" />
          </mxGeometry>
        </mxCell>
        <mxCell id="33" value="" style="edgeStyle=elbowEdgeStyle;elbow=vertical;strokeWidth=4;endArrow=block;endFill=1;fontStyle=1;dashed=1;strokeColor=#23445D;" parent="1" source="2" target="7" edge="1">
          <mxGeometry x="22" y="165.5" width="100" height="100" as="geometry">
            <mxPoint x="22" y="265.5" as="sourcePoint" />
            <mxPoint x="122" y="165.5" as="targetPoint" />
            <Array as="points">
              <mxPoint x="1062" y="295.5" />
            </Array>
          </mxGeometry>
        </mxCell>
        <mxCell id="t8ASSpriMFFah9iUcbx4-55" value="Akomodasi&#xa;- Febri" style="rounded=1;fillColor=#10739E;strokeColor=none;shadow=1;gradientColor=none;fontStyle=1;fontColor=#FFFFFF;fontSize=14;" parent="1" vertex="1">
          <mxGeometry x="1125" y="455.5" width="200" height="60" as="geometry" />
        </mxCell>
        <mxCell id="t8ASSpriMFFah9iUcbx4-56" value="" style="edgeStyle=elbowEdgeStyle;elbow=vertical;strokeWidth=4;endArrow=block;endFill=1;fontStyle=1;strokeColor=#23445D;entryX=0.5;entryY=0;entryDx=0;entryDy=0;" parent="1" target="t8ASSpriMFFah9iUcbx4-55" edge="1">
          <mxGeometry x="23" y="165.5" width="100" height="100" as="geometry">
            <mxPoint x="773" y="405.5" as="sourcePoint" />
            <mxPoint x="973" y="455.5" as="targetPoint" />
          </mxGeometry>
        </mxCell>
      </root>
    </mxGraphModel>
  </diagram>
  <diagram name="Copy of Stuktur 1.0 PT. Kanvas Cipta Karya" id="CoS0g6W7YRVPvWE7hCwg">
    <mxGraphModel dx="1394" dy="536" grid="1" gridSize="10" guides="1" tooltips="1" connect="1" arrows="1" fold="1" page="1" pageScale="1.5" pageWidth="1169" pageHeight="827" background="none" math="0" shadow="0">
      <root>
        <mxCell id="KQjVHd563obhvTtxFxGi-0" />
        <mxCell id="KQjVHd563obhvTtxFxGi-1" parent="KQjVHd563obhvTtxFxGi-0" />
        <mxCell id="KQjVHd563obhvTtxFxGi-2" value="Ketua Utama&#xa;Dinnu Shobirin&#xa;" style="rounded=1;fillColor=#10739E;strokeColor=none;shadow=1;gradientColor=none;fontStyle=1;fontColor=#FFFFFF;fontSize=14;" vertex="1" parent="KQjVHd563obhvTtxFxGi-1">
          <mxGeometry x="672" y="205.5" width="200" height="60" as="geometry" />
        </mxCell>
        <mxCell id="KQjVHd563obhvTtxFxGi-3" value="Ketua Kordinasi&#xa;Bp. Sobirin" style="rounded=1;fillColor=#10739E;strokeColor=none;shadow=1;gradientColor=none;fontStyle=1;fontColor=#FFFFFF;fontSize=14;" vertex="1" parent="KQjVHd563obhvTtxFxGi-1">
          <mxGeometry x="542" y="340" width="220" height="60" as="geometry" />
        </mxCell>
        <mxCell id="KQjVHd563obhvTtxFxGi-4" value="SDM/Finance&#xa;- Erni" style="rounded=1;fillColor=#10739E;strokeColor=none;shadow=1;gradientColor=none;fontStyle=1;fontColor=#FFFFFF;fontSize=14;" vertex="1" parent="KQjVHd563obhvTtxFxGi-1">
          <mxGeometry x="302" y="455.5" width="200" height="60" as="geometry" />
        </mxCell>
        <mxCell id="KQjVHd563obhvTtxFxGi-5" value="Penjualan&#xa;- Erni" style="rounded=1;fillColor=#10739E;strokeColor=none;shadow=1;gradientColor=none;fontStyle=1;fontColor=#FFFFFF;fontSize=14;" vertex="1" parent="KQjVHd563obhvTtxFxGi-1">
          <mxGeometry x="552" y="455.5" width="200" height="60" as="geometry" />
        </mxCell>
        <mxCell id="KQjVHd563obhvTtxFxGi-6" value="Manager Produksi&#xa;- waket&#xa;" style="rounded=1;fillColor=#10739E;strokeColor=none;shadow=1;gradientColor=none;fontStyle=1;fontColor=#FFFFFF;fontSize=14;" vertex="1" parent="KQjVHd563obhvTtxFxGi-1">
          <mxGeometry x="810" y="340" width="200" height="60" as="geometry" />
        </mxCell>
        <mxCell id="KQjVHd563obhvTtxFxGi-7" value="Komisaris&#xa;- Mas Iskandar&#xa;- Mas Aves&#xa;" style="rounded=1;fillColor=#10739E;strokeColor=none;shadow=1;gradientColor=none;fontStyle=1;fontColor=#FFFFFF;fontSize=14;" vertex="1" parent="KQjVHd563obhvTtxFxGi-1">
          <mxGeometry x="1130" y="320" width="200" height="100" as="geometry" />
        </mxCell>
        <mxCell id="KQjVHd563obhvTtxFxGi-8" value="" style="edgeStyle=elbowEdgeStyle;elbow=vertical;strokeWidth=4;endArrow=block;endFill=1;fontStyle=1;strokeColor=#23445D;" edge="1" parent="KQjVHd563obhvTtxFxGi-1" source="KQjVHd563obhvTtxFxGi-2" target="KQjVHd563obhvTtxFxGi-3">
          <mxGeometry x="22" y="165.5" width="100" height="100" as="geometry">
            <mxPoint x="22" y="265.5" as="sourcePoint" />
            <mxPoint x="122" y="165.5" as="targetPoint" />
          </mxGeometry>
        </mxCell>
        <mxCell id="KQjVHd563obhvTtxFxGi-9" value="" style="edgeStyle=elbowEdgeStyle;elbow=vertical;strokeWidth=4;endArrow=block;endFill=1;fontStyle=1;strokeColor=#23445D;" edge="1" parent="KQjVHd563obhvTtxFxGi-1" source="KQjVHd563obhvTtxFxGi-3" target="KQjVHd563obhvTtxFxGi-5">
          <mxGeometry x="22" y="165.5" width="100" height="100" as="geometry">
            <mxPoint x="22" y="265.5" as="sourcePoint" />
            <mxPoint x="122" y="165.5" as="targetPoint" />
          </mxGeometry>
        </mxCell>
        <mxCell id="KQjVHd563obhvTtxFxGi-10" value="" style="edgeStyle=elbowEdgeStyle;elbow=vertical;strokeWidth=4;endArrow=block;endFill=1;fontStyle=1;strokeColor=#23445D;" edge="1" parent="KQjVHd563obhvTtxFxGi-1" source="KQjVHd563obhvTtxFxGi-3" target="KQjVHd563obhvTtxFxGi-4">
          <mxGeometry x="22" y="165.5" width="100" height="100" as="geometry">
            <mxPoint x="22" y="265.5" as="sourcePoint" />
            <mxPoint x="122" y="165.5" as="targetPoint" />
          </mxGeometry>
        </mxCell>
        <mxCell id="KQjVHd563obhvTtxFxGi-11" value="" style="edgeStyle=elbowEdgeStyle;elbow=vertical;strokeWidth=4;endArrow=block;endFill=1;fontStyle=1;strokeColor=#23445D;" edge="1" parent="KQjVHd563obhvTtxFxGi-1" source="KQjVHd563obhvTtxFxGi-2" target="KQjVHd563obhvTtxFxGi-6">
          <mxGeometry x="22" y="165.5" width="100" height="100" as="geometry">
            <mxPoint x="22" y="265.5" as="sourcePoint" />
            <mxPoint x="122" y="165.5" as="targetPoint" />
          </mxGeometry>
        </mxCell>
        <mxCell id="KQjVHd563obhvTtxFxGi-12" value="" style="edgeStyle=elbowEdgeStyle;elbow=vertical;strokeWidth=4;endArrow=block;endFill=1;fontStyle=1;dashed=1;strokeColor=#23445D;" edge="1" parent="KQjVHd563obhvTtxFxGi-1" source="KQjVHd563obhvTtxFxGi-2" target="KQjVHd563obhvTtxFxGi-7">
          <mxGeometry x="22" y="165.5" width="100" height="100" as="geometry">
            <mxPoint x="22" y="265.5" as="sourcePoint" />
            <mxPoint x="122" y="165.5" as="targetPoint" />
            <Array as="points">
              <mxPoint x="1030" y="236" />
            </Array>
          </mxGeometry>
        </mxCell>
        <mxCell id="KQjVHd563obhvTtxFxGi-13" value="Akomodasi&#xa;- Febri" style="rounded=1;fillColor=#10739E;strokeColor=none;shadow=1;gradientColor=none;fontStyle=1;fontColor=#FFFFFF;fontSize=14;" vertex="1" parent="KQjVHd563obhvTtxFxGi-1">
          <mxGeometry x="810" y="455.5" width="200" height="60" as="geometry" />
        </mxCell>
        <mxCell id="KQjVHd563obhvTtxFxGi-14" value="" style="edgeStyle=elbowEdgeStyle;elbow=vertical;strokeWidth=4;endArrow=block;endFill=1;fontStyle=1;strokeColor=#23445D;entryX=0.5;entryY=0;entryDx=0;entryDy=0;exitX=0.5;exitY=1;exitDx=0;exitDy=0;" edge="1" parent="KQjVHd563obhvTtxFxGi-1" target="KQjVHd563obhvTtxFxGi-13" source="KQjVHd563obhvTtxFxGi-3">
          <mxGeometry x="23" y="165.5" width="100" height="100" as="geometry">
            <mxPoint x="773" y="405.5" as="sourcePoint" />
            <mxPoint x="973" y="455.5" as="targetPoint" />
          </mxGeometry>
        </mxCell>
      </root>
    </mxGraphModel>
  </diagram>
</mxfile>
